<mxfile host="app.diagrams.net" modified="2024-02-21T08:27:14.935Z" agent="Mozilla/5.0 (X11; Linux x86_64) AppleWebKit/537.36 (KHTML, like Gecko) Chrome/121.0.0.0 Safari/537.36" version="23.1.2" etag="AVTIpcWaEW3KWXzj7m_9" type="github">
  <diagram name="PÃ¡gina-1" id="efpju2KDi3fNGbUOTwlE">
    <mxGraphModel>
      <root>
        <mxCell id="0" />
        <mxCell id="1" parent="0" />
      </root>
    </mxGraphModel>
  </diagram>
</mxfile>
